<svg xmlns="http://www.w3.org/2000/svg" width="64pt" height="64pt" viewBox="0 0 64 64"><path d="M31.988 6c-.73 0-1.46.18-2.09.54l-19.82 11.44A4.202 4.202 0 008 21.602v20.757c0 1.5.797 2.883 2.078 3.621l5.203 3c2.52 1.239 3.418 1.239 4.559 1.239 3.738 0 5.879-2.258 5.879-6.18V22.621a.58.58 0 00-.578-.582h-2.5a.571.571 0 00-.582.582V44.02c0 1.761-1.817 3.48-4.758 2.02l-5.442-3.142a.61.61 0 01-.32-.539V21.621c0-.238.121-.441.32-.562L31.68 9.62a.576.576 0 01.622 0L52.12 21.06c.2.12.32.324.32.543v20.757a.633.633 0 01-.3.54L32.3 54.358a.671.671 0 01-.621 0l-5.102-3.02a.459.459 0 00-.476-.038c-1.422.8-1.68.898-3 1.36-.32.1-.82.3.18.859l6.616 3.921c.641.36 1.364.559 2.082.559.739 0 1.457-.2 2.098-.559l19.844-11.46A4.178 4.178 0 0056 42.358V21.621c0-1.5-.797-2.883-2.078-3.621L34.078 6.54a4.229 4.229 0 00-2.09-.54zm5.332 16.012c-5.66 0-9.039 2.398-9.039 6.398 0 4.34 3.356 5.54 8.797 6.078 6.5.64 7 1.602 7 2.883 0 2.2-1.777 3.14-5.957 3.14-5.262 0-6.422-1.32-6.8-3.921a.557.557 0 00-.56-.48H28.18a.56.56 0 00-.559.562c0 3.34 1.82 7.316 10.5 7.316 6.281 0 9.879-2.476 9.879-6.797 0-4.28-2.902-5.421-8.98-6.242-6.18-.8-6.801-1.219-6.801-2.66 0-1.2.543-2.777 5.101-2.777 4.059 0 5.578.879 6.2 3.617.058.262.277.46.558.46h2.582c.16 0 .297-.077.418-.198a.539.539 0 00.14-.442c-.398-4.719-3.538-6.937-9.898-6.937zm0 0" fill="#2ecc71"/></svg>