<svg width="190" height="190" fill="none" xmlns="http://www.w3.org/2000/svg">
  <path d="M150.276 61.344c3.093-14.981 3.756-26.471 1.757-34.815-1.189-4.962-3.362-9.01-6.668-11.93-3.489-3.084-7.901-4.597-12.858-4.597-8.178 0-16.775 3.725-25.963 10.802-3.747 2.887-7.636 6.366-11.676 10.44a8.731 8.731 0 00-1.09-1.163C82.36 19.915 72.746 13.599 64.523 11.164c-4.89-1.448-9.48-1.586-13.66-.181-4.414 1.483-7.93 4.55-10.41 8.845-4.094 7.089-5.174 16.403-3.648 27.904.623 4.688 1.686 9.794 3.189 15.327a8.728 8.728 0 00-1.698.38c-14.489 4.797-24.749 9.955-30.96 15.85-3.696 3.506-6.109 7.41-6.981 11.733-.921 4.562-.023 9.137 2.454 13.429 4.087 7.079 11.6 12.661 22.304 17.083 4.298 1.776 9.161 3.384 14.595 4.83a8.731 8.731 0 00-.57 1.776c-3.092 14.981-3.756 26.471-1.757 34.814 1.19 4.962 3.363 9.01 6.668 11.931 3.49 3.083 7.902 4.596 12.86 4.596 8.177 0 16.774-3.725 25.962-10.802 3.787-2.917 7.72-6.44 11.805-10.57a8.71 8.71 0 001.546 1.81c11.42 10.166 21.034 16.482 29.257 18.917 4.89 1.448 9.481 1.586 13.661.181 4.413-1.483 7.929-4.55 10.409-8.845 4.094-7.089 5.174-16.403 3.648-27.904-.645-4.857-1.764-10.164-3.354-15.929a8.732 8.732 0 001.863-.398c14.489-4.797 24.749-9.955 30.96-15.849 3.696-3.507 6.109-7.412 6.981-11.734.921-4.562.023-9.137-2.454-13.43-4.087-7.078-11.6-12.66-22.304-17.082-4.427-1.828-9.452-3.48-15.082-4.959a8.72 8.72 0 00.47-1.543z" fill="#002C4B"/>
  <path fill-rule="evenodd" clip-rule="evenodd" d="M76.06 66.511A5 5 0 0180.397 64h29.211a5 5 0 014.337 2.511l14.632 25.5a5.002 5.002 0 010 4.978l-14.632 25.499a5 5 0 01-4.337 2.512H80.397a5 5 0 01-4.337-2.512l-14.632-25.5a4.995 4.995 0 01-.638-1.987H60v-1h.79c.069-.69.282-1.368.638-1.99l14.632-25.5zm3.62 6.28a5 5 0 014.337-2.514h21.971a5 5 0 014.338 2.513l11.017 19.224a4.998 4.998 0 010 4.972l-11.017 19.224a5 5 0 01-4.338 2.513h-21.97a5 5 0 01-4.339-2.513L68.662 96.986a5 5 0 010-4.972L79.679 72.79zm12.006 10.921a5 5 0 00-4.334 2.506l-3.33 5.788a5 5 0 000 4.988l3.33 5.788a5 5 0 004.334 2.506h6.633a5 5 0 004.334-2.506l3.331-5.788a5.002 5.002 0 000-4.988l-3.331-5.788a5 5 0 00-4.334-2.506h-6.633zm-.422 8.63a4.32 4.32 0 017.477 0 4.315 4.315 0 01-3.739 6.473 4.315 4.315 0 01-3.739-6.474z" fill="#FFD94C"/>
  <path fill-rule="evenodd" clip-rule="evenodd" d="M99.315 55.706c-7.62-.042-15.03.222-22.226.793-8.498.673-17.372 1.826-26.623 3.46a2.708 2.708 0 01-3.126-2.153l-.153-.792C42.217 31.004 45.717 18 57.684 18c11.706 0 26.607 11.091 44.703 33.273.402.492.618 1.11.613 1.745a2.712 2.712 0 01-2.731 2.694l-.954-.007zm31.632 24.05a268.997 268.997 0 00-11.888-19.191c-4.867-7.15-10.341-14.39-16.421-21.716a2.775 2.775 0 01.296-3.847l.612-.537c20.107-17.568 33.176-21.078 39.206-10.527 5.898 10.32 3.764 29.08-6.403 56.28a2.753 2.753 0 01-1.209 1.424 2.714 2.714 0 01-3.718-1.041l-.475-.844zm5.755 19.268c-3.221 6.63-6.825 13.292-10.813 19.986l-.5.837a2.726 2.726 0 00.994 3.772 2.855 2.855 0 001.879.345c29.222-4.704 46.868-12.213 52.936-22.527 6.204-10.545-3.614-20.22-29.455-29.022l-.788-.266c-1.447-.486-3.023.254-3.546 1.663-3.335 8.979-6.904 17.383-10.707 25.212zm-45.017 34.271c7.62.041 15.029-.223 22.226-.794 8.498-.673 17.373-1.826 26.623-3.459a2.708 2.708 0 013.126 2.152l.153.792c4.969 26.009 1.47 39.014-10.497 39.014-11.706 0-26.607-11.091-44.703-33.273a2.724 2.724 0 01-.613-1.745 2.712 2.712 0 012.73-2.694l.955.007zm-20.744-3.86a269.515 269.515 0 01-11.888-19.191l-.475-.845a2.713 2.713 0 00-3.718-1.041 2.747 2.747 0 00-1.209 1.425c-10.167 27.2-12.3 45.96-6.403 56.279 6.03 10.551 19.099 7.041 39.206-10.527l.612-.537a2.776 2.776 0 00.296-3.847c-6.08-7.327-11.554-14.566-16.421-21.716zM64.11 70.99c-3.988 6.694-7.592 13.356-10.813 19.986-3.803 7.83-7.372 16.233-10.707 25.212-.523 1.409-2.1 2.149-3.546 1.663l-.788-.266c-25.84-8.803-35.66-18.477-29.455-29.022C14.87 78.25 32.516 70.74 61.738 66.036a2.852 2.852 0 011.88.345 2.726 2.726 0 01.993 3.772l-.5.837z" fill="#FF4154"/>
</svg>