<svg width="65" height="70" viewBox="0 0 65 70" xmlns="http://www.w3.org/2000/svg"><g id="svgGroup" stroke-linecap="round" fill-rule="evenodd" font-size="9pt" fill="#318763" style="fill:#318763"><path d="M 10.9 70 L 2.5 70 A 2.822 2.822 0 0 1 1.643 69.876 A 2.299 2.299 0 0 1 0.7 69.3 A 2.311 2.311 0 0 1 0 67.631 A 2.839 2.839 0 0 1 0 67.6 L 0 2.5 A 2.822 2.822 0 0 1 0.125 1.643 A 2.299 2.299 0 0 1 0.7 0.7 A 2.363 2.363 0 0 1 2.195 0.014 A 3.207 3.207 0 0 1 2.5 0 L 10.4 0 A 4.152 4.152 0 0 1 11.204 0.073 Q 11.662 0.163 12.015 0.366 A 2.074 2.074 0 0 1 12.5 0.75 Q 13.02 1.307 13.264 1.671 A 2.127 2.127 0 0 1 13.4 1.9 L 32.7 37.9 L 52.2 1.9 Q 52.351 1.599 52.786 1.098 A 13.279 13.279 0 0 1 53.1 0.75 Q 53.8 0 55.2 0 L 63 0 A 2.822 2.822 0 0 1 63.857 0.125 A 2.299 2.299 0 0 1 64.8 0.7 A 2.363 2.363 0 0 1 65.486 2.195 A 3.207 3.207 0 0 1 65.5 2.5 L 65.5 67.6 A 2.312 2.312 0 0 1 64.822 69.278 A 2.755 2.755 0 0 1 64.8 69.3 A 2.363 2.363 0 0 1 63.306 69.986 A 3.207 3.207 0 0 1 63 70 L 54.6 70 A 2.8 2.8 0 0 1 53.838 69.902 A 2.1 2.1 0 0 1 52.85 69.3 Q 52.2 68.6 52.2 67.6 L 52.2 24.3 L 38.2 51 Q 37.7 51.9 36.9 52.55 A 2.796 2.796 0 0 1 35.774 53.093 Q 35.363 53.192 34.882 53.199 A 5.106 5.106 0 0 1 34.8 53.2 L 30.7 53.2 A 4.832 4.832 0 0 1 29.87 53.133 Q 29.06 52.992 28.55 52.55 Q 27.8 51.9 27.3 51 L 13.3 24.3 L 13.3 67.6 A 2.312 2.312 0 0 1 12.622 69.278 A 2.755 2.755 0 0 1 12.6 69.3 A 2.311 2.311 0 0 1 10.931 70 A 2.839 2.839 0 0 1 10.9 70 Z" vector-effect="non-scaling-stroke"/></g></svg>