<svg height="512" width="512" xmlns="http://www.w3.org/2000/svg"><path d="M421 405v92c0 8.399-6.599 15-15 15h-61.8L256 465l-88.2 47H106c-8.401 0-15-6.601-15-15v-92c0-57.9 47.1-105 105-105h120c57.9 0 105 47.1 105 105z" fill="#fabe2c"/><path d="M421 405v92c0 8.399-6.599 15-15 15h-61.8L256 465V300h60c57.9 0 105 47.1 105 105z" fill="#ff9100"/><path d="M372.4 365.099c-2.999-3.3-7.2-5.099-11.4-5.099H151c-4.2 0-8.401 1.8-11.4 5.099-2.699 3.3-3.9 7.5-3.6 11.7L152.8 512h206.4L376 376.8c.3-4.201-.901-8.401-3.6-11.701z" fill="#575f64"/><path d="M391 180c0 16.5-13.5 30-30 30h-4.501c-16.8 67.2-92.999 88.5-96.599 89.399-1.199.3-2.701.601-3.9.601s-2.701-.3-3.9-.601c-3.6-.899-79.799-22.2-96.599-89.399H151c-16.5 0-30-13.5-30-30 0-19.801 4.501-39.3 13.5-56.7L151 90h210l16.5 33.3c8.999 17.4 13.5 36.899 13.5 56.7z" fill="#ffe0d6"/><path d="M391 180c0 16.5-13.5 30-30 30h-4.501c-16.8 67.2-92.999 88.5-96.599 89.399-1.199.3-2.701.601-3.9.601V90h105l16.5 33.3c8.999 17.4 13.5 36.899 13.5 56.7z" fill="#fdcdbf"/><path d="M376 376.8L359.2 512H256V360h105c4.2 0 8.401 1.8 11.4 5.099 2.699 3.3 3.9 7.5 3.6 11.701zM121 180c0-16.5 13.5-30 30-30h45c8.291 0 15-6.709 15-15 0-11.455 4.468-22.632 12.261-30.659a15.032 15.032 0 004.072-12.671 15.03 15.03 0 00-7.603-10.913c-14.956-8.232-26.748-21.548-33.237-37.515a15.046 15.046 0 00-10.781-9.023c-4.907-1.025-9.932.41-13.506 3.853C136.015 63.223 121 98.555 121 135z" fill="#474f54"/><path d="M391 135v45c0-16.5-13.5-30-30-30h-45c-8.401 0-15-6.601-15-15a42.77 42.77 0 00-2.701-15H256c-17.701 0-34.501-4.2-50.7-12.9-21-11.7-37.5-30.3-46.5-52.5-5.099-12.9-7.8-26.1-7.8-39.6 0-3.9 1.5-7.8 4.501-10.499C158.2 1.5 162.1 0 166 0h90c74.399 0 135 60.601 135 135z" fill="#575f64"/><path d="M391 135v45c0-16.5-13.5-30-30-30h-45c-8.401 0-15-6.601-15-15a42.77 42.77 0 00-2.701-15H256V0c74.399 0 135 60.601 135 135z" fill="#474f54"/><circle cx="256" cy="435" fill="#f0f7ff" r="15"/><path d="M271 435c0 8.399-6.599 15-15 15v-30c8.401 0 15 6.599 15 15z" fill="#dfe7f4"/></svg>